<svg xmlns="http://www.w3.org/2000/svg" width="380" height="483" viewBox="0 0 380 483" fill="none"><path fill-rule="evenodd" clip-rule="evenodd" d="M40.364 0H158.07C193.753 0 220.984 2.30297 239.765 6.90997C266.058 13.271 288.49 24.788 307.062 41.459C331.268 62.957 349.37 90.432 361.369 123.885C373.367 157.338 379.367 195.562 379.367 238.558C379.367 275.192 375.298 307.657 367.159 335.955C359.021 364.253 348.587 387.67 335.858 406.207C323.129 424.743 309.201 439.33 294.072 449.97C278.943 460.609 260.684 468.67 239.295 474.154C217.906 479.639 193.335 482.381 165.582 482.381H43.7849C32.1719 482.381 21.035 477.531 12.824 468.899C4.61297 460.268 0 448.56 0 436.353V42.431C0 31.178 4.25302 20.385 11.822 12.428C19.392 4.46998 29.659 0 40.364 0ZM184.61 79.166L90.447 227.368C90.447 227.368 148.637 252.889 149.99 268.278C151.182 281.828 110.407 311.384 100.645 318.254C99.343 319.16 98.5669 320.645 98.5669 322.231V402.097C98.5669 403.007 99.121 403.825 99.966 404.163C100.811 404.501 101.777 404.29 102.405 403.631L230.225 269.355C231.549 267.964 231.639 265.807 230.435 264.311L193.008 217.811C190.054 214.141 190.204 208.87 193.361 205.374L240.956 152.673C242.099 151.407 242.197 149.513 241.189 148.136L190.55 78.97C189.847 78.011 188.716 77.461 187.528 77.5C186.34 77.539 185.247 78.163 184.61 79.166Z" fill="#000F0C"></path></svg>