<svg width="196" height="32" viewBox="0 0 196 32" fill="none" xmlns="http://www.w3.org/2000/svg">
<path d="M14.801 14.2845H13.6074C7.83018 14.2845 5.72945 16.2486 5.72945 21.65V25.8907H9.78777C15.5649 25.8907 17.6657 23.9266 17.6657 18.5253V0H23.3951V18.5253C23.3951 26.5157 18.3341 31.2474 9.78777 31.2474H0V21.65C0 13.6596 5.06101 8.92781 13.6074 8.92781H14.801V14.2845Z" fill="#A4FEEB"/>
<path d="M26.2656 31.2522V21.6548C26.2656 13.6644 31.3265 8.93262 39.8729 8.93262H49.6606V18.5301C49.6606 26.5205 44.5998 31.2522 36.0533 31.2522H26.2656ZM36.0533 25.8955C41.8304 25.8955 43.9313 23.9314 43.9313 18.5301V14.2893H39.8729C34.0958 14.2893 31.9949 16.2534 31.9949 21.6548V25.8955H36.0533Z" fill="#A4FEEB"/>
<path d="M52.5303 18.8425C52.5303 12.6822 56.5407 8.93262 63.1296 8.93262H75.9255V14.2893H63.1296C59.3099 14.2893 58.2596 15.2714 58.2596 18.8425V22.7707H52.5303V18.8425Z" fill="#A4FEEB"/>
<path d="M75.9255 17.417V21.3451C75.9255 27.5054 71.9146 31.2551 65.3257 31.2551H52.5303V25.8984H65.3257C69.1455 25.8984 70.1958 24.9163 70.1958 21.3451V17.417H75.9255Z" fill="#A4FEEB"/>
<path d="M67.0916 17.417H61.3623V22.7736H67.0916V17.417Z" fill="#A4FEEB"/>
<path d="M78.7832 31.2522V21.6548C78.7832 13.6644 83.8441 8.93262 92.3905 8.93262H102.178V18.5301C102.178 26.5205 97.1173 31.2522 88.5709 31.2522H78.7832ZM88.5709 25.8955C94.348 25.8955 96.4489 23.9314 96.4489 18.5301V14.2893H92.3905C86.6134 14.2893 84.5125 16.2534 84.5125 21.6548V25.8955H88.5709Z" fill="#A4FEEB"/>
<path d="M118.991 14.2893H114.503C111.925 14.2893 110.779 15.3607 110.779 17.7712V22.4137C110.779 24.8242 111.925 25.8955 114.503 25.8955H118.991C121.57 25.8955 122.715 24.8242 122.715 22.4137H128.445C128.445 27.4133 124.339 31.2522 118.991 31.2522H114.503C109.156 31.2522 105.05 27.4133 105.05 22.4137V17.7712C105.05 12.7716 109.156 8.93262 114.503 8.93262H118.991C124.339 8.93262 128.445 12.7716 128.445 17.7712H122.715C122.715 15.3607 121.57 14.2893 118.991 14.2893Z" fill="#A4FEEB"/>
<path d="M137.047 0V31.2474H131.317V0H137.047ZM139.911 17.4093H141.105C146.882 17.4093 148.983 15.4451 148.983 10.0438V8.92781H154.712V10.0438C154.712 14.4631 153.137 17.9003 150.32 20.0876C153.137 22.275 154.712 25.7122 154.712 30.1315V31.2474H148.983V30.1315C148.983 24.7301 146.882 22.7659 141.105 22.7659H139.911V17.4093Z" fill="#A4FEEB"/>
<path d="M166.167 17.6819H175.239C175.191 15.316 174.045 14.2893 171.515 14.2893H167.027C164.449 14.2893 163.303 15.3607 163.303 17.7712V22.4137C163.303 24.8242 164.449 25.8955 167.027 25.8955H178.104V31.2522H167.027C161.679 31.2522 157.573 27.4133 157.573 22.4137V17.7712C157.573 12.7716 161.679 8.93262 167.027 8.93262H171.515C176.862 8.93262 180.968 12.7716 180.968 17.7712V23.0386H166.167V17.6819Z" fill="#A4FEEB"/>
<path d="M189.567 0V8.92781H195.297V14.2845H189.567V24.2391C189.567 25.8907 189.567 25.8907 191.334 25.8907H195.297V31.2474H191.334C186.75 31.2474 183.838 28.5245 183.838 24.2391V0H189.567Z" fill="#A4FEEB"/>
</svg>
