<svg width="538" height="106" viewBox="0 0 538 106" fill="none" xmlns="http://www.w3.org/2000/svg">
<path fill-rule="evenodd" clip-rule="evenodd" d="M8.85564 0H34.6797C42.5083 0 48.4826 0.505259 52.6031 1.51601C58.3716 2.91158 63.2931 5.43834 67.3677 9.09587C72.6783 13.8124 76.6498 19.8403 79.2823 27.1797C81.9146 34.5191 83.231 42.9052 83.231 52.3383C83.231 60.3756 82.3383 67.4982 80.5526 73.7066C78.7672 79.915 76.478 85.0526 73.6853 89.1195C70.8927 93.1862 67.837 96.3865 64.5177 98.7209C61.1985 101.055 57.1926 102.824 52.5 104.027C47.8073 105.23 42.4166 105.832 36.3278 105.832H9.60616C7.05834 105.832 4.61496 104.768 2.81351 102.874C1.01206 100.98 0 98.4115 0 95.7334V9.30912C0 6.84027 0.933089 4.47235 2.59368 2.72663C4.2545 0.980688 6.50702 0 8.85564 0ZM40.5024 17.3686L19.8436 49.8833C19.8436 49.8833 32.6101 55.4824 32.907 58.8587C33.1685 61.8315 24.2227 68.3159 22.081 69.8231C21.7953 70.0219 21.625 70.3477 21.625 70.6957V88.2178C21.625 88.4175 21.7466 88.5969 21.932 88.6711C22.1174 88.7452 22.3293 88.6989 22.4671 88.5544L50.51 59.095C50.8005 58.7898 50.8203 58.3165 50.5562 57.9883L42.3449 47.7865C41.6968 46.9813 41.7297 45.8249 42.4223 45.0579L52.8644 33.4956C53.1152 33.2178 53.1367 32.8023 52.9155 32.5002L41.8056 17.3256C41.6514 17.1152 41.4032 16.9945 41.1426 17.0031C40.882 17.0116 40.6421 17.1485 40.5024 17.3686Z" fill="#00FCCC"/>
<path d="M158.245 11.0335L156.852 84.0489H144.751L144.817 80.577C140.448 83.4177 135.26 85.101 129.683 85.101C114.635 85.101 102.765 73.0019 103.052 57.957C103.339 42.912 115.671 30.8129 130.718 30.8129C136.296 30.8129 141.42 32.4963 145.68 35.3369L146.143 11.0335H158.245ZM129.904 73.528C138.217 73.528 145.084 66.5842 145.248 57.957C145.413 49.3298 138.811 42.386 130.498 42.386C122.185 42.386 115.318 49.3298 115.153 57.957C114.988 66.5842 121.591 73.528 129.904 73.528ZM190.629 30.8129C205.571 30.8129 217.547 42.912 217.26 57.957C216.973 73.0019 204.536 85.101 189.593 85.101C174.546 85.101 162.675 73.0019 162.962 57.957C163.249 42.912 175.581 30.8129 190.629 30.8129ZM189.814 73.528C198.127 73.528 204.994 66.5842 205.159 57.957C205.323 49.3298 198.721 42.386 190.408 42.386C182.095 42.386 175.228 49.3298 175.063 57.957C174.899 66.5842 181.501 73.528 189.814 73.528ZM223.065 84.0489L223.286 72.4759H256.118C258.327 72.4759 260.154 70.4769 260.203 67.9519C260.249 65.5321 258.498 63.5331 256.288 63.5331H236.084C227.884 63.1122 220.969 56.0632 221.133 47.436C221.298 38.8088 228.483 31.7598 236.698 31.339H269.214L268.993 42.912H236.478C235.004 42.912 233.177 44.911 233.129 47.436C233.081 49.9611 234.832 51.96 236.305 51.96H256.509C265.453 51.96 272.472 59.1143 272.304 67.9519C272.133 76.8947 264.841 84.0489 255.897 84.0489H223.065ZM303.873 30.8129C318.815 30.8129 330.791 42.912 330.504 57.957C330.217 73.0019 317.78 85.101 302.837 85.101C287.79 85.101 275.919 73.0019 276.206 57.957C276.493 42.912 288.825 30.8129 303.873 30.8129ZM303.058 73.528C311.371 73.528 318.238 66.5842 318.403 57.957C318.567 49.3298 311.965 42.386 303.652 42.386C295.339 42.386 288.472 49.3298 288.308 57.957C288.143 66.5842 294.745 73.528 303.058 73.528ZM333.65 57.957C333.937 42.912 346.259 31.339 361.307 31.339H381.616L381.396 42.912H361.086C352.773 42.912 345.811 49.3298 345.646 57.957C345.482 66.5842 352.209 72.4759 360.522 72.4759H380.832L380.611 84.0489H360.302C345.254 84.0489 333.363 73.0019 333.65 57.957ZM429.71 55.0111C433.642 58.483 436.494 63.4279 437.317 69.9509C437.874 73.8436 438.411 78.7885 439.152 84.0489H426.735C426.091 79.2093 425.542 74.8957 425.181 71.7394C424.27 64.3748 418.971 60.7976 413.605 60.7976H397.399L396.956 84.0489H384.854L386.247 11.0335H398.349L397.62 49.2246H414.772C419.831 48.8037 424.742 45.1214 425.818 38.388C426.171 36.389 426.533 33.9692 427.004 31.339H439.316C438.833 34.6005 438.356 37.5463 437.885 40.1766C436.919 46.6996 433.773 51.6444 429.71 55.0111ZM480.455 31.339C488.655 31.7598 495.57 38.8088 495.406 47.436C495.241 56.0632 488.056 63.1122 479.841 63.5331H455.112C457.217 69.004 462.623 72.4759 468.937 72.4759H489.982L489.762 84.0489H468.716C453.773 84.0489 441.778 73.0019 442.065 57.957C442.352 42.912 454.779 31.339 469.721 31.339H480.455ZM480.061 51.96C481.535 51.96 483.256 49.9611 483.305 47.436C483.353 44.911 481.707 42.912 480.234 42.912H469.501C463.292 42.912 457.857 46.4891 455.438 51.96H480.061ZM534.277 84.0489H514.074C505.761 84.0489 499.049 77.3155 499.21 68.8988L500.175 18.293H512.276L511.941 35.863H525.937L525.716 47.436H511.72L511.311 68.8988C511.273 70.8977 512.821 72.4759 514.82 72.4759H534.498L534.277 84.0489Z" fill="#00FCCC"/>
</svg>
